<svg width="50" height="50" viewBox="0 0 50 50" fill="none" xmlns="http://www.w3.org/2000/svg">
<path d="M39.9072 29.9899C37.877 33.1754 33.2483 35.4839 28.7703 35.4839C22.2042 35.4839 16.7053 30.7056 16.7053 25C16.7053 19.2944 22.2042 14.5161 28.7703 14.5161C33.2483 14.5161 37.877 16.8246 39.9072 20.0101C41.4965 14.879 44.7448 10.6048 50 8.13508C44.7448 3.13508 37.181 0 28.7703 0C12.877 0 0 11.1895 0 25C0 38.8105 12.877 50 28.7703 50C37.181 50 44.7448 46.8649 50 41.8649C44.7448 39.3952 41.4965 35.121 39.9072 29.9899Z" fill="black"/>
</svg>
