<svg width="50" height="50" viewBox="0 0 50 50" fill="none" xmlns="http://www.w3.org/2000/svg">
<path d="M36.3968 30.5562C37.6949 29.9019 39.4963 29.3355 39.4963 29.3355C39.4963 29.3355 34.3702 30.0191 29.2707 30.3316C23.032 30.7125 16.3297 30.7906 12.9654 30.4586C5.00476 29.6773 17.3364 27.5192 17.3364 27.5192C17.3364 27.5192 12.5547 27.2848 6.66046 29.3746C-0.293476 31.855 23.8797 32.9878 36.3968 30.5562ZM25.0851 27.4215C22.5684 23.2516 14.078 19.5896 25.0851 13.1834C38.8154 5.19524 31.7741 0 31.7741 0C34.6219 8.25184 21.7604 10.7518 17.1112 15.8787C13.9455 19.3845 18.661 23.1442 25.0851 27.4215V27.4215ZM40.2645 10.2147C40.2777 10.2147 17.0582 14.492 28.1448 23.9059C31.4165 26.6793 27.2838 29.1793 27.2838 29.1793C27.2838 29.1793 35.5888 26.0153 31.7741 22.0603C28.211 18.3689 25.4824 16.533 40.2645 10.2147V10.2147ZM39.4565 36.6304C39.3841 36.7234 39.295 36.8088 39.1916 36.8843C56.1857 33.5933 49.9338 25.2731 41.8142 27.3825C41.3757 27.5013 40.9968 27.7159 40.7281 27.9977C41.2022 27.8712 41.6895 27.7732 42.1851 27.7047C46.2912 27.07 52.1855 31.7574 39.4565 36.6304V36.6304ZM45.7031 42.7143C45.7031 42.7143 47.6237 43.8764 43.5971 44.7846C35.9279 46.4935 11.7017 47.0111 4.97297 44.8529C2.54903 44.0814 7.09226 42.9975 8.52278 42.7729C10.0063 42.5385 10.8673 42.5776 10.8673 42.5776C8.1784 41.1811 -6.5242 45.3217 3.39674 46.5033C30.4495 49.7454 52.7233 45.0482 45.7031 42.7143ZM16.0913 38.6714C5.66704 40.8198 22.4359 45.2533 35.708 41.0639C34.4136 40.6932 33.1641 40.2423 31.9728 39.7163C26.052 40.5463 23.3102 40.6049 17.9324 40.1557C13.4952 39.7846 16.0913 38.6714 16.0913 38.6714V38.6714ZM39.9069 48.1634C29.4826 49.6087 16.6211 49.4427 9.00492 48.515C9.00492 48.5052 10.5679 49.4622 18.5947 49.8431C30.8072 50.4193 49.5629 49.5208 50 45.2631C50 45.2631 49.1523 46.8744 39.9069 48.1634V48.1634ZM34.1318 34.4722C26.2904 35.5855 21.7472 35.5562 16.0118 35.1167C11.5746 34.7749 14.4753 33.1929 14.4753 33.1929C2.97818 36.0054 20.8597 39.1889 36.9266 35.7222C35.8882 35.4519 34.9367 35.0263 34.1318 34.4722Z" fill="black"/>
</svg>
