<svg width="57" height="54" viewBox="0 0 57 54" fill="none" xmlns="http://www.w3.org/2000/svg">
<path d="M50.8929 0H6.10714C2.73549 0 0 2.59152 0 5.78571V48.2143C0 51.4085 2.73549 54 6.10714 54H50.8929C54.2645 54 57 51.4085 57 48.2143V5.78571C57 2.59152 54.2645 0 50.8929 0ZM31.0192 42.1152C31.0192 47.3705 27.7621 49.7692 23.0163 49.7692C18.7286 49.7692 16.2475 47.6719 14.9752 45.1286L19.3393 42.6335C20.179 44.0438 20.9424 45.2371 22.7873 45.2371C24.5431 45.2371 25.6627 44.5862 25.6627 42.0429V24.7942H31.0192V42.1152ZM43.6915 49.7692C38.7167 49.7692 35.4978 47.5272 33.9328 44.5862L38.2969 42.1996C39.442 43.9714 40.9433 45.2853 43.577 45.2853C45.7909 45.2853 47.2159 44.2366 47.2159 42.7781C47.2159 41.0424 45.7654 40.4277 43.3098 39.4031L41.9739 38.8607C38.106 37.3058 35.5487 35.3411 35.5487 31.2067C35.5487 27.3978 38.615 24.5049 43.3862 24.5049C46.796 24.5049 49.2388 25.6259 50.9946 28.567L46.8214 31.0982C45.9054 29.5433 44.9129 28.9286 43.3734 28.9286C41.8085 28.9286 40.8161 29.8687 40.8161 31.0982C40.8161 32.617 41.8085 33.2317 44.1114 34.1839L45.4473 34.7263C50.0022 36.5705 52.5596 38.4629 52.5596 42.7058C52.5596 47.2621 48.7681 49.7692 43.6915 49.7692Z" fill="black"/>
</svg>
