<svg width="52" height="37" viewBox="0 0 52 37" fill="none" xmlns="http://www.w3.org/2000/svg">
<path d="M26 1.8467C39.9262 1.8467 50.635 9.78313 50.635 18.5C50.635 27.2169 39.9181 35.1533 26 35.1533C12.0738 35.1533 1.365 27.2169 1.365 18.5C1.365 9.78313 12.0819 1.8467 26 1.8467ZM26 0C11.6431 0 0 8.27718 0 18.5C0 28.7228 11.6431 37 26 37C40.3569 37 52 28.7228 52 18.5C52 8.27718 40.3569 0 26 0ZM17.7287 17.016C17.0869 21.4679 14.82 21.0062 12.0331 21.0062L13.1462 13.2457C16.2337 13.2457 18.33 12.795 17.7287 17.016ZM7.91375 28.8657H10.8956L11.6025 23.9412C14.9419 23.9412 17.0138 24.2709 18.9312 21.8417C21.0519 19.2035 21.6044 14.5098 20.0931 12.1575C19.305 10.9263 18.0375 10.3217 16.315 10.3217H10.5706L7.91375 28.8657ZM23.0019 5.38622H25.9675L25.2606 10.3108C27.82 10.3108 30.1925 10.0579 31.3381 11.4869C32.5406 12.9819 31.9637 14.8945 30.6637 23.9192H27.6575C28.9087 15.1913 29.1444 14.4658 28.6894 13.8063C28.2506 13.1687 27.2512 13.3007 24.8381 13.3007L23.3106 23.9192H20.345L23.0019 5.38622ZM41.0312 17.016C40.3812 21.5339 38.0494 21.0062 35.3356 21.0062L36.4487 13.2457C39.5525 13.2457 41.6325 12.795 41.0312 17.016ZM31.2162 28.8657H34.2062L34.9131 23.9412C38.4231 23.9412 40.365 24.216 42.2419 21.8417C44.3625 19.2035 44.915 14.5098 43.4037 12.1575C42.6156 10.9263 41.3481 10.3217 39.6256 10.3217H33.8812L31.2162 28.8657Z" fill="black"/>
</svg>
