<svg width="45" height="50" viewBox="0 0 45 50" fill="none" xmlns="http://www.w3.org/2000/svg">
<path d="M45 14.0625C45 9.74609 40.8047 6.25 35.625 6.25C30.4453 6.25 26.25 9.74609 26.25 14.0625C26.25 17.6172 29.0977 20.6152 32.9883 21.5625C32.918 23.1348 32.4961 24.3457 31.6992 25.166C29.8945 27.041 25.9219 27.3535 21.7148 27.6758C18.4102 27.9297 14.9883 28.2031 12.1875 29.3262V15.2637C15.9961 14.2676 18.75 11.3086 18.75 7.8125C18.75 3.49609 14.5547 0 9.375 0C4.19531 0 0 3.49609 0 7.8125C0 11.3086 2.75391 14.2676 6.5625 15.2637V34.7266C2.75391 35.7324 0 38.6914 0 42.1875C0 46.5039 4.19531 50 9.375 50C14.5547 50 18.75 46.5039 18.75 42.1875C18.75 38.8672 16.2656 36.0254 12.75 34.9023C13.1133 34.3945 13.6641 33.9453 14.4961 33.5938C16.3945 32.793 19.2305 32.5781 22.2422 32.3438C27.1875 31.9629 32.7891 31.5234 36.0938 28.1055C37.7344 26.4062 38.5664 24.2187 38.625 21.4746C42.3281 20.4199 45 17.5 45 14.0625ZM9.375 6.25C10.4063 6.25 11.25 6.95312 11.25 7.8125C11.25 8.67188 10.4063 9.375 9.375 9.375C8.34375 9.375 7.5 8.67188 7.5 7.8125C7.5 6.95312 8.34375 6.25 9.375 6.25ZM9.375 43.75C8.34375 43.75 7.5 43.0469 7.5 42.1875C7.5 41.3281 8.34375 40.625 9.375 40.625C10.4063 40.625 11.25 41.3281 11.25 42.1875C11.25 43.0469 10.4063 43.75 9.375 43.75ZM35.625 12.5C36.6563 12.5 37.5 13.2031 37.5 14.0625C37.5 14.9219 36.6563 15.625 35.625 15.625C34.5937 15.625 33.75 14.9219 33.75 14.0625C33.75 13.2031 34.5937 12.5 35.625 12.5Z" fill="black"/>
</svg>
