<svg width="50" height="50" viewBox="0 0 50 50" fill="none" xmlns="http://www.w3.org/2000/svg">
<path d="M49.0833 18.8053C48.224 15.3568 46.5946 12.7564 43.1237 12.7564H38.6484V18.0464C38.6484 22.1534 35.1664 25.6131 31.1933 25.6131H19.274C16.0152 25.6131 13.3144 28.4032 13.3144 31.6732V43.0344C13.3144 46.2709 16.1268 48.1681 19.274 49.0944C23.0462 50.1993 26.6733 50.4002 31.1933 49.0944C34.1954 48.2239 37.1529 46.4718 37.1529 43.0344V38.4921H25.2448V36.9743H43.1237C46.5946 36.9743 47.878 34.5525 49.0833 30.9254C50.3333 27.1867 50.2775 23.5931 49.0833 18.8053V18.8053ZM31.941 41.5166C33.1798 41.5166 34.1843 42.5322 34.1843 43.7821C34.1843 45.0432 33.1798 46.0588 31.941 46.0588C30.7134 46.0588 29.6978 45.0321 29.6978 43.7821C29.709 42.521 30.7134 41.5166 31.941 41.5166ZM18.7272 24.1176H30.6464C33.9611 24.1176 36.6061 21.3833 36.6061 18.0576V6.68518C36.6061 3.44869 33.8829 1.02689 30.6464 0.480038C26.651 -0.178421 22.3096 -0.14494 18.7272 0.491199C13.6827 1.38403 12.7675 3.2478 12.7675 6.69634V11.2386H24.698V12.7564H8.29223C4.82136 12.7564 1.78574 14.8434 0.837111 18.8053C-0.256605 23.3476 -0.301246 26.1823 0.837111 30.9254C1.6853 34.4521 3.70532 36.9743 7.17619 36.9743H11.272V31.5281C11.272 27.5885 14.676 24.1176 18.7272 24.1176ZM17.9794 8.20299C16.7406 8.20299 15.7362 7.1874 15.7362 5.93744C15.7473 4.67632 16.7406 3.66073 17.9794 3.66073C19.2071 3.66073 20.2227 4.68748 20.2227 5.93744C20.2227 7.1874 19.2182 8.20299 17.9794 8.20299V8.20299Z" fill="black"/>
</svg>
