<svg width="57" height="49" viewBox="0 0 57 49" fill="none" xmlns="http://www.w3.org/2000/svg">
<path d="M46.5574 15.879C45.9563 15.6822 45.3551 15.4962 44.7539 15.3213C44.8541 14.9166 44.9432 14.5119 45.0322 14.1073C46.4016 7.58885 45.4998 2.35007 42.4605 0.622037C39.5326 -1.02944 34.7566 0.687658 29.925 4.82181C29.4463 5.22648 28.9787 5.65302 28.5334 6.07956C28.2328 5.7952 27.9211 5.51084 27.6094 5.23742C22.5439 0.818901 17.4674 -1.04037 14.4281 0.698595C11.5113 2.36101 10.643 7.29356 11.8676 13.462C11.99 14.0744 12.1236 14.676 12.2795 15.2884C11.567 15.4853 10.8656 15.704 10.2088 15.9337C4.26387 17.957 0 21.1506 0 24.4536C0 27.8659 4.54219 31.2891 10.7209 33.3672C11.2219 33.5312 11.7229 33.6953 12.235 33.8374C12.068 34.4937 11.9232 35.1389 11.7896 35.8061C10.6207 41.8761 11.5336 46.6883 14.4504 48.3398C17.4563 50.046 22.5105 48.2961 27.4312 44.0635C27.8209 43.7244 28.2105 43.3744 28.6002 43.0026C29.09 43.4729 29.6021 43.9213 30.1143 44.3588C34.8791 48.3835 39.5883 50.0131 42.4939 48.3617C45.4998 46.6555 46.4795 41.4824 45.2104 35.1827C45.1102 34.7015 44.9988 34.2093 44.8764 33.7062C45.2326 33.6078 45.5777 33.4984 45.9229 33.389C52.3465 31.3001 57 27.9206 57 24.4536C57 21.1397 52.6137 17.9242 46.5574 15.879V15.879ZM31.4947 6.59359C35.6361 3.05003 39.4992 1.66104 41.2582 2.6563C43.1396 3.71718 43.8633 8.00445 42.6832 13.637C42.6053 14.0088 42.5273 14.3697 42.4271 14.7307C39.9557 14.1838 37.4508 13.7901 34.9348 13.5713C33.4875 11.5371 31.9066 9.59031 30.1922 7.76384C30.6264 7.35918 31.0494 6.97639 31.4947 6.59359V6.59359ZM18.6141 30.1298C19.1818 31.0813 19.7607 32.0329 20.373 32.9625C18.6363 32.7766 16.9107 32.5031 15.2074 32.1422C15.6973 30.5673 16.3096 28.9377 17.0221 27.2753C17.5342 28.2377 18.0574 29.1893 18.6141 30.1298V30.1298ZM15.2408 16.9727C16.8439 16.6227 18.5473 16.3384 20.3174 16.1196C19.7273 17.0274 19.1484 17.957 18.6029 18.8976C18.0574 19.8273 17.523 20.7788 17.0221 21.7412C16.3207 20.1116 15.7307 18.5148 15.2408 16.9727ZM18.2912 24.5083C19.026 22.999 19.8275 21.5225 20.6736 20.0679C21.5197 18.6133 22.4326 17.2024 23.39 15.8134C25.06 15.6931 26.7633 15.6275 28.5 15.6275C30.2367 15.6275 31.9512 15.6931 33.61 15.8134C34.5562 17.1915 35.458 18.6023 36.3152 20.046C37.1725 21.4897 37.974 22.9662 38.7311 24.4645C37.9852 25.9738 37.1836 27.4612 36.3264 28.9268C35.4803 30.3814 34.5785 31.7922 33.6322 33.1922C31.9734 33.3125 30.2479 33.3672 28.5 33.3672C26.7521 33.3672 25.06 33.3125 23.4234 33.214C22.4549 31.8251 21.542 30.4033 20.6848 28.9486C19.8275 27.494 19.0371 26.0176 18.2912 24.5083ZM38.3971 30.108C38.9648 29.1455 39.4992 28.1721 40.0225 27.1878C40.735 28.7737 41.3584 30.3814 41.9039 32.0329C40.1783 32.4156 38.4305 32.7109 36.6715 32.9078C37.2727 31.9891 37.8404 31.0485 38.3971 30.108ZM40.0002 21.7412C39.477 20.7788 38.9426 19.8163 38.3859 18.8757C37.8404 17.9461 37.2727 17.0274 36.6826 16.1196C38.475 16.3384 40.1895 16.6337 41.7926 16.9946C41.2805 18.6133 40.6793 20.1882 40.0002 21.7412V21.7412ZM28.5223 9.43719C29.6912 10.684 30.7934 11.9964 31.8176 13.3526C29.6133 13.2542 27.3979 13.2542 25.1936 13.3526C26.2846 11.9417 27.409 10.6293 28.5223 9.43719ZM15.6082 2.73286C17.4785 1.66104 21.6311 3.19221 26.0063 6.99826C26.2846 7.23887 26.5629 7.50136 26.8523 7.76384C25.1268 9.59031 23.5348 11.5371 22.0764 13.5713C19.5604 13.7901 17.0666 14.1729 14.5951 14.7088C14.4504 14.151 14.3279 13.5823 14.2055 13.0136C13.159 7.72009 13.8492 3.72812 15.6082 2.73286V2.73286ZM12.8807 31.5626C12.4131 31.4313 11.9566 31.2891 11.5002 31.136C9.12891 30.4033 6.43477 29.2439 4.48652 27.7237C3.36211 26.9581 2.60508 25.7769 2.39355 24.4536C2.39355 22.4521 5.91152 19.8929 10.9881 18.1539C11.6227 17.9352 12.2684 17.7383 12.9141 17.5524C13.6711 19.9257 14.584 22.2553 15.6416 24.5083C14.5729 26.7941 13.6488 29.1564 12.8807 31.5626V31.5626ZM25.8615 42.2807C24.0246 43.9322 21.8982 45.2447 19.5826 46.1415C18.3469 46.7211 16.9219 46.7758 15.6527 46.2837C13.8826 45.2775 13.1479 41.4167 14.1498 36.2217C14.2723 35.6092 14.4059 34.9968 14.5617 34.3952C17.0555 34.9202 19.5715 35.2811 22.1209 35.467C23.5904 37.5123 25.2047 39.47 26.9303 41.3074C26.574 41.6464 26.2178 41.9745 25.8615 42.2807ZM28.5891 39.6231C27.4535 38.42 26.318 37.0857 25.2158 35.653C26.2846 35.6967 27.3867 35.7186 28.5 35.7186C29.6467 35.7186 30.7711 35.6967 31.8844 35.642C30.8602 37.031 29.758 38.3544 28.5891 39.6231V39.6231ZM43.1396 42.9042C43.0395 44.2385 42.3715 45.4853 41.3027 46.3274C39.5326 47.3336 35.7586 46.0212 31.684 42.587C31.2164 42.1933 30.7488 41.7667 30.2701 41.3292C31.9734 39.4809 33.5432 37.5232 34.9682 35.467C37.5176 35.2592 40.0559 34.8765 42.5607 34.3187C42.6721 34.7671 42.7723 35.2155 42.8613 35.653C43.4068 38.0154 43.4959 40.4762 43.1396 42.9042V42.9042ZM45.1658 31.147C44.8541 31.2454 44.5424 31.3438 44.2195 31.4313C43.4402 29.0471 42.4828 26.7175 41.3807 24.4536C42.4494 22.2224 43.3512 19.9257 44.1082 17.5743C44.6871 17.7383 45.2438 17.9133 45.7781 18.0883C50.966 19.8382 54.6064 22.4412 54.6064 24.4317C54.6064 26.5753 50.7211 29.3424 45.1658 31.147ZM28.5 29.5064C31.3166 29.5064 33.5988 27.2644 33.5988 24.4973C33.5988 21.7303 31.3166 19.4882 28.5 19.4882C25.6834 19.4882 23.4012 21.7303 23.4012 24.4973C23.4012 27.2644 25.6834 29.5064 28.5 29.5064Z" fill="black"/>
</svg>
