<?xml version="1.0" encoding="UTF-8" standalone="no"?>
<!-- Created with Inkscape (http://www.inkscape.org/) -->

<svg
   xmlns:dc="http://purl.org/dc/elements/1.1/"
   xmlns:cc="http://creativecommons.org/ns#"
   xmlns:rdf="http://www.w3.org/1999/02/22-rdf-syntax-ns#"
   xmlns:svg="http://www.w3.org/2000/svg"
   xmlns="http://www.w3.org/2000/svg"
   xmlns:sodipodi="http://sodipodi.sourceforge.net/DTD/sodipodi-0.dtd"
   xmlns:inkscape="http://www.inkscape.org/namespaces/inkscape"
   width="8.784852mm"
   height="3.8004665mm"
   viewBox="0 0 8.784852 3.8004665"
   version="1.1"
   id="svg10153"
   inkscape:version="0.92.2 (5c3e80d, 2017-08-06)"
   sodipodi:docname="Space Invaders.svg">
  <defs
     id="defs10147">
    <clipPath
       clipPathUnits="userSpaceOnUse"
       id="clipPath6226">
      <path
         d="M 0,841.89 H 1190.55 V 0 H 0 Z"
         id="path6224"
         inkscape:connector-curvature="0" />
    </clipPath>
  </defs>
  <sodipodi:namedview
     id="base"
     pagecolor="#ffffff"
     bordercolor="#666666"
     borderopacity="1.0"
     inkscape:pageopacity="0.0"
     inkscape:pageshadow="2"
     inkscape:zoom="0.7"
     inkscape:cx="121.05981"
     inkscape:cy="46.218534"
     inkscape:document-units="mm"
     inkscape:current-layer="layer1"
     showgrid="false"
     fit-margin-top="0"
     fit-margin-left="0"
     fit-margin-right="0"
     fit-margin-bottom="0"
     inkscape:window-width="1366"
     inkscape:window-height="705"
     inkscape:window-x="-8"
     inkscape:window-y="-8"
     inkscape:window-maximized="1" />
  <metadata
     id="metadata10150">
    <rdf:RDF>
      <cc:Work
         rdf:about="">
        <dc:format>image/svg+xml</dc:format>
        <dc:type
           rdf:resource="http://purl.org/dc/dcmitype/StillImage" />
        <dc:title></dc:title>
      </cc:Work>
    </rdf:RDF>
  </metadata>
  <g
     inkscape:label="Layer 1"
     inkscape:groupmode="layer"
     id="layer1"
     transform="translate(-23.830515,-223.95935)">
    <g
       id="g15241"
       transform="matrix(0.17059237,0,0,0.17059237,19.765211,188.90573)">
      <g
         transform="matrix(0.35277777,0,0,-0.35277777,26.95512,217.3111)"
         id="g6228">
        <path
           inkscape:connector-curvature="0"
           id="path6230"
           style="fill:#007a8e;fill-opacity:1;fill-rule:nonzero;stroke:none"
           d="m 0,0 h 6.428 l 12.768,-19.992 h -5.04 z" />
      </g>
      <g
         transform="matrix(0.35277777,0,0,-0.35277777,26.95512,217.3111)"
         id="g6232">
        <path
           inkscape:connector-curvature="0"
           id="path6234"
           style="fill:none;stroke:#221815;stroke-width:0.148;stroke-linecap:butt;stroke-linejoin:miter;stroke-miterlimit:10;stroke-dasharray:none;stroke-opacity:1"
           d="m 0,0 h 6.428 l 12.768,-19.992 h -5.04 z" />
      </g>
      <g
         transform="matrix(0.35277777,0,0,-0.35277777,30.078791,217.3111)"
         id="g6236">
        <path
           inkscape:connector-curvature="0"
           id="path6238"
           style="fill:#007a8e;fill-opacity:1;fill-rule:nonzero;stroke:none"
           d="m 0,0 c 0,0 5.154,0.032 5.154,0 0,-0.035 8.102,-9.115 8.102,-9.148 0,-0.034 -4.393,9.136 -4.393,9.136 h 6.561 c 0,0 8.851,-19.98 8.818,-19.98 h -3.578 l -7.408,7.838 4.15,-7.838 h -5.263 z" />
      </g>
      <g
         transform="matrix(0.35277777,0,0,-0.35277777,30.078791,217.3111)"
         id="g6240">
        <path
           inkscape:connector-curvature="0"
           id="path6242"
           style="fill:none;stroke:#221815;stroke-width:0.148;stroke-linecap:butt;stroke-linejoin:miter;stroke-miterlimit:10;stroke-dasharray:none;stroke-opacity:1"
           d="m 0,0 c 0,0 5.154,0.032 5.154,0 0,-0.035 8.102,-9.115 8.102,-9.148 0,-0.034 -4.393,9.136 -4.393,9.136 h 6.561 c 0,0 8.851,-19.98 8.818,-19.98 h -3.578 l -7.408,7.838 4.15,-7.838 h -5.263 z" />
      </g>
      <g
         transform="matrix(0.35277777,0,0,-0.35277777,36.133198,217.3111)"
         id="g6244">
        <path
           inkscape:connector-curvature="0"
           id="path6246"
           style="fill:#007a8e;fill-opacity:1;fill-rule:nonzero;stroke:none"
           d="M 0,0 H 6.684 L 14.17,-14.972 11.352,0 h 7.054 l 1.928,-19.992 h -8.951 z" />
      </g>
      <g
         transform="matrix(0.35277777,0,0,-0.35277777,36.133198,217.3111)"
         id="g6248">
        <path
           inkscape:connector-curvature="0"
           id="path6250"
           style="fill:none;stroke:#221815;stroke-width:0.148;stroke-linecap:butt;stroke-linejoin:miter;stroke-miterlimit:10;stroke-dasharray:none;stroke-opacity:1"
           d="M 0,0 H 6.684 L 14.17,-14.972 11.352,0 h 7.054 l 1.928,-19.992 h -8.951 z" />
      </g>
      <g
         transform="matrix(0.35277777,0,0,-0.35277777,55.702734,217.31526)"
         id="g6252">
        <path
           inkscape:connector-curvature="0"
           id="path6254"
           style="fill:#007a8e;fill-opacity:1;fill-rule:nonzero;stroke:none"
           d="M 0,0 H 14.313 L 13.09,-3.677 H 6.032 L 4.799,-8.609 h 5.604 l -0.759,-2.4 H 4.183 L 2.531,-17.581 H 8.475 L 7.672,-19.969 H -3.5 Z" />
      </g>
      <g
         transform="matrix(0.35277777,0,0,-0.35277777,55.702734,217.31526)"
         id="g6256">
        <path
           inkscape:connector-curvature="0"
           id="path6258"
           style="fill:none;stroke:#221815;stroke-width:0.148;stroke-linecap:butt;stroke-linejoin:miter;stroke-miterlimit:10;stroke-dasharray:none;stroke-opacity:1"
           d="M 0,0 H 14.313 L 13.09,-3.677 H 6.032 L 4.799,-8.609 h 5.604 l -0.759,-2.4 H 4.183 L 2.531,-17.581 H 8.475 L 7.672,-19.969 H -3.5 Z" />
      </g>
      <g
         transform="matrix(0.35277777,0,0,-0.35277777,64.057428,218.61027)"
         id="g6260">
        <path
           inkscape:connector-curvature="0"
           id="path6262"
           style="fill:#007a8e;fill-opacity:1;fill-rule:nonzero;stroke:none"
           d="m 0,0 h -2.08 l -2.722,-6.358 h 1.914 z M -7.356,3.671 H 4.774 L 7.487,0.124 3.63,-5.785 -0.347,-7.579 1.714,-9.44 l -3.61,-6.858 h -5.46 l 3.147,6.945 h -1.86 l -2.994,-6.945 h -5.351 z" />
      </g>
      <g
         transform="matrix(0.35277777,0,0,-0.35277777,64.057428,218.61027)"
         id="g6264">
        <path
           inkscape:connector-curvature="0"
           id="path6266"
           style="fill:none;stroke:#221815;stroke-width:0.148;stroke-linecap:butt;stroke-linejoin:miter;stroke-miterlimit:10;stroke-dasharray:none;stroke-opacity:1"
           d="m 0,0 h -2.08 l -2.722,-6.358 h 1.914 z M -7.356,3.671 H 4.774 L 7.487,0.124 3.63,-5.785 -0.347,-7.579 1.714,-9.44 l -3.61,-6.858 h -5.46 l 3.147,6.945 h -1.86 l -2.994,-6.945 h -5.351 z" />
      </g>
      <g
         transform="matrix(0.35277777,0,0,-0.35277777,72.859975,218.23922)"
         id="g6268">
        <path
           inkscape:connector-curvature="0"
           id="path6270"
           style="fill:#007a8e;fill-opacity:1;fill-rule:nonzero;stroke:none"
           d="m 0,0 -3.666,-5.143 h -6.066 l 2.189,3.409 h -1.783 l -3.168,-5.125 h 4.218 l 1.604,-2.477 c 0,0 -3.994,-5.659 -4.029,-5.659 -0.031,0 -4.315,-2.355 -4.315,-2.355 H -21.5 l -1.717,2.158 1.685,3.048 h 5.911 l -1.541,-2.465 h 1.319 l 2.71,4.215 h -3.986 L -19,-7.52 l 3.93,7.167 5.328,2.994 h 8.312 z" />
      </g>
      <g
         transform="matrix(0.35277777,0,0,-0.35277777,72.859975,218.23922)"
         id="g6272">
        <path
           inkscape:connector-curvature="0"
           id="path6274"
           style="fill:none;stroke:#221815;stroke-width:0.148;stroke-linecap:butt;stroke-linejoin:miter;stroke-miterlimit:10;stroke-dasharray:none;stroke-opacity:1"
           d="m 0,0 -3.666,-5.143 h -6.066 l 2.189,3.409 h -1.783 l -3.168,-5.125 h 4.218 l 1.604,-2.477 c 0,0 -3.994,-5.659 -4.029,-5.659 -0.031,0 -4.315,-2.355 -4.315,-2.355 H -21.5 l -1.717,2.158 1.685,3.048 h 5.911 l -1.541,-2.465 h 1.319 l 2.71,4.215 h -3.986 L -19,-7.52 l 3.93,7.167 5.328,2.994 h 8.312 z" />
      </g>
      <g
         transform="matrix(0.35277777,0,0,-0.35277777,46.044737,219.95968)"
         id="g6276">
        <path
           inkscape:connector-curvature="0"
           id="path6278"
           style="fill:#007a8e;fill-opacity:1;fill-rule:nonzero;stroke:none"
           d="m 0,0 v -6.904 h 1.902 z m -5.812,7.518 h 9.61 L 8.09,-12.483 H 3.346 L 2.453,-9.402 H 0.01 v -3.081 h -5.108 z" />
      </g>
      <g
         transform="matrix(0.35277777,0,0,-0.35277777,46.044737,219.95968)"
         id="g6280">
        <path
           inkscape:connector-curvature="0"
           id="path6282"
           style="fill:none;stroke:#221815;stroke-width:0.148;stroke-linecap:butt;stroke-linejoin:miter;stroke-miterlimit:10;stroke-dasharray:none;stroke-opacity:1"
           d="m 0,0 v -6.904 h 1.902 z m -5.812,7.518 h 9.61 L 8.09,-12.483 H 3.346 L 2.453,-9.402 H 0.01 v -3.081 h -5.108 z" />
      </g>
      <g
         transform="matrix(0.35277777,0,0,-0.35277777,51.260274,223.52126)"
         id="g6284">
        <path
           inkscape:connector-curvature="0"
           id="path6286"
           style="fill:#007a8e;fill-opacity:1;fill-rule:nonzero;stroke:none"
           d="M 0,0 H 1.728 L 2.719,13.915 H 0.681 Z M -5.67,17.604 H 5.647 c 0,0 3.907,-3.358 3.907,-3.391 0,-0.032 -2.135,-14.388 -2.135,-14.388 L 4.402,-2.377 h -9.621 z" />
      </g>
      <g
         transform="matrix(0.35277777,0,0,-0.35277777,51.260274,223.52126)"
         id="g6288">
        <path
           inkscape:connector-curvature="0"
           id="path6290"
           style="fill:none;stroke:#221815;stroke-width:0.148;stroke-linecap:butt;stroke-linejoin:miter;stroke-miterlimit:10;stroke-dasharray:none;stroke-opacity:1"
           d="M 0,0 H 1.728 L 2.719,13.915 H 0.681 Z M -5.67,17.604 H 5.647 c 0,0 3.907,-3.358 3.907,-3.391 0,-0.032 -2.135,-14.388 -2.135,-14.388 L 4.402,-2.377 h -9.621 z" />
      </g>
      <g
         transform="matrix(0.35277777,0,0,-0.35277777,35.956139,205.50786)"
         id="g6292">
        <path
           inkscape:connector-curvature="0"
           id="path6294"
           style="fill:#007a8e;fill-opacity:1;fill-rule:nonzero;stroke:none"
           d="m 0,0 h 7.834 l 4.83,-4.04 1.309,-5.961 H 7.245 L 5.959,-5.509 H 4.516 l 1.894,-6.679 h 4.877 l 3.859,-3.252 1.491,-6.795 -2.822,-3.228 H 7.088 l -3.793,2.799 -1.242,3.477 h 6.412 l 0.632,-2.19 h 1.332 l -1.31,4.493 h -4.74 l -4.719,4.516 -2.798,7.832 z" />
      </g>
      <g
         transform="matrix(0.35277777,0,0,-0.35277777,35.956139,205.50786)"
         id="g6296">
        <path
           inkscape:connector-curvature="0"
           id="path6298"
           style="fill:none;stroke:#221815;stroke-width:0.148;stroke-linecap:butt;stroke-linejoin:miter;stroke-miterlimit:10;stroke-dasharray:none;stroke-opacity:1"
           d="m 0,0 h 7.834 l 4.83,-4.04 1.309,-5.961 H 7.245 L 5.959,-5.509 H 4.516 l 1.894,-6.679 h 4.877 l 3.859,-3.252 1.491,-6.795 -2.822,-3.228 H 7.088 l -3.793,2.799 -1.242,3.477 h 6.412 l 0.632,-2.19 h 1.332 l -1.31,4.493 h -4.74 l -4.719,4.516 -2.798,7.832 z" />
      </g>
      <g
         transform="matrix(0.35277777,0,0,-0.35277777,44.155471,210.42092)"
         id="g6300">
        <path
           inkscape:connector-curvature="0"
           id="path6302"
           style="fill:#007a8e;fill-opacity:1;fill-rule:nonzero;stroke:none"
           d="M 0,0 H 1.536 L 0.429,8.441 H -1.196 Z M -9.188,13.905 H 2.824 L 7.518,9.728 8.24,-0.43 5.147,-4.763 H 0.475 l 1.151,-6.773 h -5.733 z" />
      </g>
      <g
         transform="matrix(0.35277777,0,0,-0.35277777,44.155471,210.42092)"
         id="g6304">
        <path
           inkscape:connector-curvature="0"
           id="path6306"
           style="fill:none;stroke:#221815;stroke-width:0.148;stroke-linecap:butt;stroke-linejoin:miter;stroke-miterlimit:10;stroke-dasharray:none;stroke-opacity:1"
           d="M 0,0 H 1.536 L 0.429,8.441 H -1.196 Z M -9.188,13.905 H 2.824 L 7.518,9.728 8.24,-0.43 5.147,-4.763 H 0.475 l 1.151,-6.773 h -5.733 z" />
      </g>
      <g
         transform="matrix(0.35277777,0,0,-0.35277777,49.65383,211.69216)"
         id="g6308">
        <path
           inkscape:connector-curvature="0"
           id="path6310"
           style="fill:#007a8e;fill-opacity:1;fill-rule:nonzero;stroke:none"
           d="m 0,0 h 1.877 c 0,0 -0.815,10.272 -0.882,10.272 z M -3.813,17.383 H 6.006 L 8.15,-8.08 H 2.564 L 2.18,-4.229 H -0.328 L -0.742,-8.08 h -5.6 z" />
      </g>
      <g
         transform="matrix(0.35277777,0,0,-0.35277777,49.65383,211.69216)"
         id="g6312">
        <path
           inkscape:connector-curvature="0"
           id="path6314"
           style="fill:none;stroke:#221815;stroke-width:0.148;stroke-linecap:butt;stroke-linejoin:miter;stroke-miterlimit:10;stroke-dasharray:none;stroke-opacity:1"
           d="m 0,0 h 1.877 c 0,0 -0.815,10.272 -0.882,10.272 z M -3.813,17.383 H 6.006 L 8.15,-8.08 H 2.564 L 2.18,-4.229 H -0.328 L -0.742,-8.08 h -5.6 z" />
      </g>
      <g
         transform="matrix(0.35277777,0,0,-0.35277777,55.345828,205.51199)"
         id="g6316">
        <path
           inkscape:connector-curvature="0"
           id="path6318"
           style="fill:#007a8e;fill-opacity:1;fill-rule:nonzero;stroke:none"
           d="M 0,0 H 7.655 L 11.311,-4.706 9.999,-9.989 H 3.455 l 0.768,4.674 H 2.26 l -2.383,-16.073 h 1.682 l 0.937,5.621 h 6.365 l -1.412,-6.332 -4.007,-3.362 h -6.69 l -2.969,3.68 1.569,17.628 z" />
      </g>
      <g
         transform="matrix(0.35277777,0,0,-0.35277777,55.345828,205.51199)"
         id="g6320">
        <path
           inkscape:connector-curvature="0"
           id="path6322"
           style="fill:none;stroke:#221815;stroke-width:0.148;stroke-linecap:butt;stroke-linejoin:miter;stroke-miterlimit:10;stroke-dasharray:none;stroke-opacity:1"
           d="M 0,0 H 7.655 L 11.311,-4.706 9.999,-9.989 H 3.455 l 0.768,4.674 H 2.26 l -2.383,-16.073 h 1.682 l 0.937,5.621 h 6.365 l -1.412,-6.332 -4.007,-3.362 h -6.69 l -2.969,3.68 1.569,17.628 z" />
      </g>
      <g
         transform="matrix(0.35277777,0,0,-0.35277777,60.634038,205.51199)"
         id="g6324">
        <path
           inkscape:connector-curvature="0"
           id="path6326"
           style="fill:#007a8e;fill-opacity:1;fill-rule:nonzero;stroke:none"
           d="M 0,0 H 14.75 L 12.844,-5.327 H 5.633 L 4.106,-10.349 H 8.973 L 7.37,-15.044 H 2.888 L 0.896,-21.936 H 6.465 L 5.256,-26.01 H -6.405 Z" />
      </g>
      <g
         transform="matrix(0.35277777,0,0,-0.35277777,60.634038,205.51199)"
         id="g6328">
        <path
           inkscape:connector-curvature="0"
           id="path6330"
           style="fill:none;stroke:#221815;stroke-width:0.148;stroke-linecap:butt;stroke-linejoin:miter;stroke-miterlimit:10;stroke-dasharray:none;stroke-opacity:1"
           d="M 0,0 H 14.75 L 12.844,-5.327 H 5.633 L 4.106,-10.349 H 8.973 L 7.37,-15.044 H 2.888 L 0.896,-21.936 H 6.465 L 5.256,-26.01 H -6.405 Z" />
      </g>
      <g
         transform="matrix(0.35277777,0,0,-0.35277777,25.50852,218.56237)"
         id="g6332">
        <path
           inkscape:connector-curvature="0"
           id="path6334"
           style="fill:#777cbb;fill-opacity:1;fill-rule:nonzero;stroke:none"
           d="M 0,0 H 6.836 L 20.413,-21.254 H 14.459 Z" />
      </g>
      <g
         transform="matrix(0.35277777,0,0,-0.35277777,25.50852,218.56237)"
         id="g6336">
        <path
           inkscape:connector-curvature="0"
           id="path6338"
           style="fill:none;stroke:#221815;stroke-width:0.148;stroke-linecap:butt;stroke-linejoin:miter;stroke-miterlimit:10;stroke-dasharray:none;stroke-opacity:1"
           d="M 0,0 H 6.836 L 20.413,-21.254 H 14.459 Z" />
      </g>
      <g
         transform="matrix(0.35277777,0,0,-0.35277777,28.910567,218.56237)"
         id="g6340">
        <path
           inkscape:connector-curvature="0"
           id="path6342"
           style="fill:#777cbb;fill-opacity:1;fill-rule:nonzero;stroke:none"
           d="m 0,0 c 0,0 5.478,0.035 5.478,0 0,-0.034 8.613,-9.689 8.613,-9.726 0,-0.036 -4.67,9.714 -4.67,9.714 h 6.976 c 0,0 9.412,-21.242 9.375,-21.242 H 21.97 l -7.879,8.333 4.414,-8.333 h -5.596 z" />
      </g>
      <g
         transform="matrix(0.35277777,0,0,-0.35277777,28.910567,218.56237)"
         id="g6344">
        <path
           inkscape:connector-curvature="0"
           id="path6346"
           style="fill:none;stroke:#221815;stroke-width:0.148;stroke-linecap:butt;stroke-linejoin:miter;stroke-miterlimit:10;stroke-dasharray:none;stroke-opacity:1"
           d="m 0,0 c 0,0 5.478,0.035 5.478,0 0,-0.034 8.613,-9.689 8.613,-9.726 0,-0.036 -4.67,9.714 -4.67,9.714 h 6.976 c 0,0 9.412,-21.242 9.375,-21.242 H 21.97 l -7.879,8.333 4.414,-8.333 h -5.596 z" />
      </g>
      <g
         transform="matrix(0.35277777,0,0,-0.35277777,35.23612,218.56237)"
         id="g6348">
        <path
           inkscape:connector-curvature="0"
           id="path6350"
           style="fill:#777cbb;fill-opacity:1;fill-rule:nonzero;stroke:none"
           d="M 0,0 H 7.105 L 15.063,-15.918 12.068,0 h 7.502 l 2.049,-21.254 h -9.515 z" />
      </g>
      <g
         transform="matrix(0.35277777,0,0,-0.35277777,35.23612,218.56237)"
         id="g6352">
        <path
           inkscape:connector-curvature="0"
           id="path6354"
           style="fill:none;stroke:#221815;stroke-width:0.148;stroke-linecap:butt;stroke-linejoin:miter;stroke-miterlimit:10;stroke-dasharray:none;stroke-opacity:1"
           d="M 0,0 H 7.105 L 15.063,-15.918 12.068,0 h 7.502 l 2.049,-21.254 h -9.515 z" />
      </g>
      <g
         transform="matrix(0.35277777,0,0,-0.35277777,56.042423,218.56649)"
         id="g6356">
        <path
           inkscape:connector-curvature="0"
           id="path6358"
           style="fill:#777cbb;fill-opacity:1;fill-rule:nonzero;stroke:none"
           d="M 0,0 H 15.215 L 13.918,-3.908 H 6.414 L 4.905,-9.746 H 11.16 L 9.846,-13.041 H 4.039 l -1.348,-5.65 H 9.012 L 8.158,-21.23 H -3.723 Z" />
      </g>
      <g
         transform="matrix(0.35277777,0,0,-0.35277777,56.042423,218.56649)"
         id="g6360">
        <path
           inkscape:connector-curvature="0"
           id="path6362"
           style="fill:none;stroke:#221815;stroke-width:0.148;stroke-linecap:butt;stroke-linejoin:miter;stroke-miterlimit:10;stroke-dasharray:none;stroke-opacity:1"
           d="M 0,0 H 15.215 L 13.918,-3.908 H 6.414 L 4.905,-9.746 H 11.16 L 9.846,-13.041 H 4.039 l -1.348,-5.65 H 9.012 L 8.158,-21.23 H -3.723 Z" />
      </g>
      <g
         transform="matrix(0.35277777,0,0,-0.35277777,64.948686,219.88701)"
         id="g6364">
        <path
           inkscape:connector-curvature="0"
           id="path6366"
           style="fill:#777cbb;fill-opacity:1;fill-rule:nonzero;stroke:none"
           d="m 0,0 h -2.211 l -2.961,-6.919 h 2.037 z M -7.887,3.743 H 4.961 l 2.422,-3.394 -3.59,-6.66 -3.731,-1.908 1.696,-1.975 -3.841,-7.293 h -5.804 l 3.346,7.384 h -1.977 l -3.185,-7.384 h -5.688 z" />
      </g>
      <g
         transform="matrix(0.35277777,0,0,-0.35277777,64.948686,219.88701)"
         id="g6368">
        <path
           inkscape:connector-curvature="0"
           id="path6370"
           style="fill:none;stroke:#221815;stroke-width:0.148;stroke-linecap:butt;stroke-linejoin:miter;stroke-miterlimit:10;stroke-dasharray:none;stroke-opacity:1"
           d="m 0,0 h -2.211 l -2.961,-6.919 h 2.037 z M -7.887,3.743 H 4.961 l 2.422,-3.394 -3.59,-6.66 -3.731,-1.908 1.696,-1.975 -3.841,-7.293 h -5.804 l 3.346,7.384 h -1.977 l -3.185,-7.384 h -5.688 z" />
      </g>
      <g
         transform="matrix(0.35277777,0,0,-0.35277777,74.039593,219.54905)"
         id="g6372">
        <path
           inkscape:connector-curvature="0"
           id="path6374"
           style="fill:#777cbb;fill-opacity:1;fill-rule:nonzero;stroke:none"
           d="m 0,0 -3.898,-5.465 h -6.448 l 2.891,4.516 h -1.896 l -3.933,-6.343 h 4.483 l 1.708,-2.634 c 0,0 -4.249,-6.015 -4.284,-6.015 -0.035,0 -4.588,-2.504 -4.588,-2.504 h -6.893 l -1.828,2.293 1.791,3.242 h 6.288 l -1.639,-2.622 h 1.402 l 2.881,4.483 h -4.236 l -2.002,3.057 4.178,7.617 5.665,3.184 h 8.838 z" />
      </g>
      <g
         transform="matrix(0.35277777,0,0,-0.35277777,74.039593,219.54905)"
         id="g6376">
        <path
           inkscape:connector-curvature="0"
           id="path6378"
           style="fill:none;stroke:#221815;stroke-width:0.148;stroke-linecap:butt;stroke-linejoin:miter;stroke-miterlimit:10;stroke-dasharray:none;stroke-opacity:1"
           d="m 0,0 -3.898,-5.465 h -6.448 l 2.891,4.516 h -1.896 l -3.933,-6.343 h 4.483 l 1.708,-2.634 c 0,0 -4.249,-6.015 -4.284,-6.015 -0.035,0 -4.588,-2.504 -4.588,-2.504 h -6.893 l -1.828,2.293 1.791,3.242 h 6.288 l -1.639,-2.622 h 1.402 l 2.881,4.483 h -4.236 l -2.002,3.057 4.178,7.617 5.665,3.184 h 8.838 z" />
      </g>
      <g
         transform="matrix(0.35277777,0,0,-0.35277777,45.773627,221.37806)"
         id="g6380">
        <path
           inkscape:connector-curvature="0"
           id="path6382"
           style="fill:#777cbb;fill-opacity:1;fill-rule:nonzero;stroke:none"
           d="M 0,0 V -7.338 H 2.024 Z M -6.181,7.993 H 4.038 L 8.603,-13.272 H 3.558 L 2.61,-9.996 H 0.013 v -3.276 h -5.432 z" />
      </g>
      <g
         transform="matrix(0.35277777,0,0,-0.35277777,45.773627,221.37806)"
         id="g6384">
        <path
           inkscape:connector-curvature="0"
           id="path6386"
           style="fill:none;stroke:#221815;stroke-width:0.148;stroke-linecap:butt;stroke-linejoin:miter;stroke-miterlimit:10;stroke-dasharray:none;stroke-opacity:1"
           d="M 0,0 V -7.338 H 2.024 Z M -6.181,7.993 H 4.038 L 8.603,-13.272 H 3.558 L 2.61,-9.996 H 0.013 v -3.276 h -5.432 z" />
      </g>
      <g
         transform="matrix(0.35277777,0,0,-0.35277777,51.318482,225.16457)"
         id="g6388">
        <path
           inkscape:connector-curvature="0"
           id="path6390"
           style="fill:#777cbb;fill-opacity:1;fill-rule:nonzero;stroke:none"
           d="M 0,0 H 1.641 L 2.693,14.795 H 0.727 Z M -6.027,18.715 H 6.006 c 0,0 4.154,-3.569 4.154,-3.606 0,-0.033 -2.27,-15.296 -2.27,-15.296 L 4.684,-2.527 H -5.547 Z" />
      </g>
      <g
         transform="matrix(0.35277777,0,0,-0.35277777,51.318482,225.16457)"
         id="g6392">
        <path
           inkscape:connector-curvature="0"
           id="path6394"
           style="fill:none;stroke:#221815;stroke-width:0.148;stroke-linecap:butt;stroke-linejoin:miter;stroke-miterlimit:10;stroke-dasharray:none;stroke-opacity:1"
           d="M 0,0 H 1.641 L 2.693,14.795 H 0.727 Z M -6.027,18.715 H 6.006 c 0,0 4.154,-3.569 4.154,-3.606 0,-0.033 -2.27,-15.296 -2.27,-15.296 L 4.684,-2.527 H -5.547 Z" />
      </g>
      <g
         transform="matrix(0.35277777,0,0,-0.35277777,35.266423,206.83423)"
         id="g6396">
        <path
           inkscape:connector-curvature="0"
           id="path6398"
           style="fill:#777cbb;fill-opacity:1;fill-rule:nonzero;stroke:none"
           d="m 0,0 h 8.17 l 5.037,-4.214 1.365,-6.216 H 7.557 l -1.34,4.685 H 4.709 l 1.977,-6.969 h 5.085 l 4.026,-3.39 1.553,-7.084 -2.942,-3.369 H 7.395 l -3.957,2.919 -1.295,3.627 h 6.685 l 0.66,-2.284 h 1.389 l -1.363,4.686 H 4.568 l -4.922,4.708 -2.917,8.168 z" />
      </g>
      <g
         transform="matrix(0.35277777,0,0,-0.35277777,35.266423,206.83423)"
         id="g6400">
        <path
           inkscape:connector-curvature="0"
           id="path6402"
           style="fill:none;stroke:#221815;stroke-width:0.148;stroke-linecap:butt;stroke-linejoin:miter;stroke-miterlimit:10;stroke-dasharray:none;stroke-opacity:1"
           d="m 0,0 h 8.17 l 5.037,-4.214 1.365,-6.216 H 7.557 l -1.34,4.685 H 4.709 l 1.977,-6.969 h 5.085 l 4.026,-3.39 1.553,-7.084 -2.942,-3.369 H 7.395 l -3.957,2.919 -1.295,3.627 h 6.685 l 0.66,-2.284 h 1.389 l -1.363,4.686 H 4.568 l -4.922,4.708 -2.917,8.168 z" />
      </g>
      <g
         transform="matrix(0.35277777,0,0,-0.35277777,43.983879,211.97191)"
         id="g6404">
        <path
           inkscape:connector-curvature="0"
           id="path6406"
           style="fill:#777cbb;fill-opacity:1;fill-rule:nonzero;stroke:none"
           d="M 0,0 H 1.602 L 0.446,8.805 H -1.247 Z M -9.581,14.501 H 2.943 L 7.84,10.146 8.594,-0.447 5.367,-4.967 H 0.494 l 1.2,-7.064 h -5.977 z" />
      </g>
      <g
         transform="matrix(0.35277777,0,0,-0.35277777,43.983879,211.97191)"
         id="g6408">
        <path
           inkscape:connector-curvature="0"
           id="path6410"
           style="fill:none;stroke:#221815;stroke-width:0.148;stroke-linecap:butt;stroke-linejoin:miter;stroke-miterlimit:10;stroke-dasharray:none;stroke-opacity:1"
           d="M 0,0 H 1.602 L 0.446,8.805 H -1.247 Z M -9.581,14.501 H 2.943 L 7.84,10.146 8.594,-0.447 5.367,-4.967 H 0.494 l 1.2,-7.064 h -5.977 z" />
      </g>
      <g
         transform="matrix(0.35277777,0,0,-0.35277777,49.632487,213.22935)"
         id="g6412">
        <path
           inkscape:connector-curvature="0"
           id="path6414"
           style="fill:#777cbb;fill-opacity:1;fill-rule:nonzero;stroke:none"
           d="m 0,0 h 1.953 c 0,0 -0.848,10.71 -0.918,10.71 z M -3.979,18.128 H 6.262 L 8.498,-8.431 H 2.672 L 2.283,-4.248 H -0.33 l -0.447,-4.183 h -5.84 z" />
      </g>
      <g
         transform="matrix(0.35277777,0,0,-0.35277777,49.632487,213.22935)"
         id="g6416">
        <path
           inkscape:connector-curvature="0"
           id="path6418"
           style="fill:none;stroke:#221815;stroke-width:0.148;stroke-linecap:butt;stroke-linejoin:miter;stroke-miterlimit:10;stroke-dasharray:none;stroke-opacity:1"
           d="m 0,0 h 1.953 c 0,0 -0.848,10.71 -0.918,10.71 z M -3.979,18.128 H 6.262 L 8.498,-8.431 H 2.672 L 2.283,-4.248 H -0.33 l -0.447,-4.183 h -5.84 z" />
      </g>
      <g
         transform="matrix(0.35277777,0,0,-0.35277777,55.545642,206.83871)"
         id="g6420">
        <path
           inkscape:connector-curvature="0"
           id="path6422"
           style="fill:#777cbb;fill-opacity:1;fill-rule:nonzero;stroke:none"
           d="m 0,0 h 8.449 l 3.932,-4.479 -1.502,-5.938 H 3.105 l 0.801,4.872 H 2.354 L -0.13,-22.306 h 1.456 l 0.879,5.861 h 7.207 l -1.719,-6.924 -4.177,-3.509 h -6.981 l -3.096,3.838 1.711,18.708 z" />
      </g>
      <g
         transform="matrix(0.35277777,0,0,-0.35277777,55.545642,206.83871)"
         id="g6424">
        <path
           inkscape:connector-curvature="0"
           id="path6426"
           style="fill:none;stroke:#221815;stroke-width:0.148;stroke-linecap:butt;stroke-linejoin:miter;stroke-miterlimit:10;stroke-dasharray:none;stroke-opacity:1"
           d="m 0,0 h 8.449 l 3.932,-4.479 -1.502,-5.938 H 3.105 l 0.801,4.872 H 2.354 L -0.13,-22.306 h 1.456 l 0.879,5.861 h 7.207 l -1.719,-6.924 -4.177,-3.509 h -6.981 l -3.096,3.838 1.711,18.708 z" />
      </g>
      <g
         transform="matrix(0.35277777,0,0,-0.35277777,61.060546,206.83871)"
         id="g6428">
        <path
           inkscape:connector-curvature="0"
           id="path6430"
           style="fill:#777cbb;fill-opacity:1;fill-rule:nonzero;stroke:none"
           d="m 0,0 h 15.385 l -1.99,-5.557 H 5.873 l -1.59,-5.236 H 9.357 L 7.686,-15.691 H 3.012 l -1.871,-6.591 h 6.166 l -1.53,-4.25 H -6.477 Z" />
      </g>
      <g
         transform="matrix(0.35277777,0,0,-0.35277777,61.060546,206.83871)"
         id="g6432">
        <path
           inkscape:connector-curvature="0"
           id="path6434"
           style="fill:none;stroke:#221815;stroke-width:0.148;stroke-linecap:butt;stroke-linejoin:miter;stroke-miterlimit:10;stroke-dasharray:none;stroke-opacity:1"
           d="m 0,0 h 15.385 l -1.99,-5.557 H 5.873 l -1.59,-5.236 H 9.357 L 7.686,-15.691 H 3.012 l -1.871,-6.591 h 6.166 l -1.53,-4.25 H -6.477 Z" />
      </g>
      <g
         transform="matrix(0.35277777,0,0,-0.35277777,23.97376,219.75987)"
         id="g6436">
        <path
           inkscape:connector-curvature="0"
           id="path6438"
           style="fill:#221815;fill-opacity:1;fill-rule:nonzero;stroke:none"
           d="M 0,0 H 7.226 L 21.577,-22.467 H 15.911 Z" />
      </g>
      <g
         transform="matrix(0.35277777,0,0,-0.35277777,23.97376,219.75987)"
         id="g6440">
        <path
           inkscape:connector-curvature="0"
           id="path6442"
           style="fill:none;stroke:#221815;stroke-width:0.41999999;stroke-linecap:butt;stroke-linejoin:miter;stroke-miterlimit:4;stroke-dasharray:none;stroke-opacity:1"
           d="M 0,0 H 7.226 L 21.577,-22.467 H 15.911 Z" />
      </g>
      <g
         transform="matrix(0.35277777,0,0,-0.35277777,27.592131,219.75987)"
         id="g6444">
        <path
           inkscape:connector-curvature="0"
           id="path6446"
           style="fill:#221815;fill-opacity:1;fill-rule:nonzero;stroke:none"
           d="m 0,0 c 0,0 5.789,0.037 5.789,0 0,-0.037 9.106,-10.244 9.106,-10.281 0,-0.036 -4.935,10.269 -4.935,10.269 h 7.372 c 0,0 9.948,-22.455 9.91,-22.455 h -4.02 l -8.327,8.808 4.664,-8.808 h -5.913 z" />
      </g>
      <g
         transform="matrix(0.35277777,0,0,-0.35277777,27.592131,219.75987)"
         id="g6448">
        <path
           inkscape:connector-curvature="0"
           id="path6450"
           style="fill:none;stroke:#221815;stroke-width:0.41999999;stroke-linecap:butt;stroke-linejoin:miter;stroke-miterlimit:4;stroke-dasharray:none;stroke-opacity:1"
           d="m 0,0 c 0,0 5.789,0.037 5.789,0 0,-0.037 9.106,-10.244 9.106,-10.281 0,-0.036 -4.935,10.269 -4.935,10.269 h 7.372 c 0,0 9.948,-22.455 9.91,-22.455 h -4.02 l -8.327,8.808 4.664,-8.808 h -5.913 z" />
      </g>
      <g
         transform="matrix(0.35277777,0,0,-0.35277777,34.278363,219.75987)"
         id="g6452">
        <path
           inkscape:connector-curvature="0"
           id="path6454"
           style="fill:#221815;fill-opacity:1;fill-rule:nonzero;stroke:none"
           d="M 0,0 H 7.51 L 15.924,-16.825 12.756,0 h 7.93 l 2.166,-22.467 H 12.793 Z" />
      </g>
      <g
         transform="matrix(0.35277777,0,0,-0.35277777,34.278363,219.75987)"
         id="g6456">
        <path
           inkscape:connector-curvature="0"
           id="path6458"
           style="fill:none;stroke:#221815;stroke-width:0.41999999;stroke-linecap:butt;stroke-linejoin:miter;stroke-miterlimit:4;stroke-dasharray:none;stroke-opacity:1"
           d="M 0,0 H 7.51 L 15.924,-16.825 12.756,0 h 7.93 l 2.166,-22.467 H 12.793 Z" />
      </g>
      <g
         transform="matrix(0.35277777,0,0,-0.35277777,56.271164,219.76403)"
         id="g6460">
        <path
           inkscape:connector-curvature="0"
           id="path6462"
           style="fill:#221815;fill-opacity:1;fill-rule:nonzero;stroke:none"
           d="M 0,0 H 16.084 L 14.709,-4.133 H 6.781 L 5.394,-9.676 h 6.497 l -1.276,-3.588 H 4.479 l -1.633,-6.495 h 6.68 L 8.623,-22.443 H -3.934 Z" />
      </g>
      <g
         transform="matrix(0.35277777,0,0,-0.35277777,56.271164,219.76403)"
         id="g6464">
        <path
           inkscape:connector-curvature="0"
           id="path6466"
           style="fill:none;stroke:#221815;stroke-width:0.41999999;stroke-linecap:butt;stroke-linejoin:miter;stroke-miterlimit:4;stroke-dasharray:none;stroke-opacity:1"
           d="M 0,0 H 16.084 L 14.709,-4.133 H 6.781 L 5.394,-9.676 h 6.497 l -1.276,-3.588 H 4.479 l -1.633,-6.495 h 6.68 L 8.623,-22.443 H -3.934 Z" />
      </g>
      <g
         transform="matrix(0.35277777,0,0,-0.35277777,65.685921,221.16064)"
         id="g6468">
        <path
           inkscape:connector-curvature="0"
           id="path6470"
           style="fill:#221815;fill-opacity:1;fill-rule:nonzero;stroke:none"
           d="m 0,0 h -2.339 l -3.132,-7.312 h 2.155 z M -8.338,3.959 H 5.293 L 7.707,0.37 4.008,-6.669 l -4.465,-2.016 2.311,-2.093 -4.057,-7.706 h -6.135 l 3.538,7.806 h -2.091 l -3.367,-7.806 h -6.012 z" />
      </g>
      <g
         transform="matrix(0.35277777,0,0,-0.35277777,65.685921,221.16064)"
         id="g6472">
        <path
           inkscape:connector-curvature="0"
           id="path6474"
           style="fill:none;stroke:#221815;stroke-width:0.41999999;stroke-linecap:butt;stroke-linejoin:miter;stroke-miterlimit:4;stroke-dasharray:none;stroke-opacity:1"
           d="m 0,0 h -2.339 l -3.132,-7.312 h 2.155 z M -8.338,3.959 H 5.293 L 7.707,0.37 4.008,-6.669 l -4.465,-2.016 2.311,-2.093 -4.057,-7.706 h -6.135 l 3.538,7.806 h -2.091 l -3.367,-7.806 h -6.012 z" />
      </g>
      <g
         transform="matrix(0.35277777,0,0,-0.35277777,75.239531,220.80307)"
         id="g6476">
        <path
           inkscape:connector-curvature="0"
           id="path6478"
           style="fill:#221815;fill-opacity:1;fill-rule:nonzero;stroke:none"
           d="m 0,0 -4.12,-5.777 h -6.815 l 3.055,4.774 h -2.004 l -4.156,-6.704 h 4.736 l 1.809,-2.785 c 0,0 -4.492,-6.358 -4.529,-6.358 -0.038,0 -4.848,-2.648 -4.848,-2.648 h -7.289 l -1.93,2.425 1.891,3.427 h 6.644 l -1.732,-2.772 h 1.486 l 3.043,4.739 h -4.478 l -2.117,3.231 4.417,8.052 5.989,3.365 h 9.342 z" />
      </g>
      <g
         transform="matrix(0.35277777,0,0,-0.35277777,75.239531,220.80307)"
         id="g6480">
        <path
           inkscape:connector-curvature="0"
           id="path6482"
           style="fill:none;stroke:#221815;stroke-width:0.41999999;stroke-linecap:butt;stroke-linejoin:miter;stroke-miterlimit:4;stroke-dasharray:none;stroke-opacity:1"
           d="m 0,0 -4.12,-5.777 h -6.815 l 3.055,4.774 h -2.004 l -4.156,-6.704 h 4.736 l 1.809,-2.785 c 0,0 -4.492,-6.358 -4.529,-6.358 -0.038,0 -4.848,-2.648 -4.848,-2.648 h -7.289 l -1.93,2.425 1.891,3.427 h 6.644 l -1.732,-2.772 h 1.486 l 3.043,4.739 h -4.478 l -2.117,3.231 4.417,8.052 5.989,3.365 h 9.342 z" />
      </g>
      <g
         transform="matrix(0.35277777,0,0,-0.35277777,45.417039,222.73678)"
         id="g6484">
        <path
           inkscape:connector-curvature="0"
           id="path6486"
           style="fill:#221815;fill-opacity:1;fill-rule:nonzero;stroke:none"
           d="M 0,0 V -7.756 H 2.139 Z M -6.534,8.45 H 4.268 L 9.094,-14.028 H 3.762 L 2.76,-10.564 H 0.014 v -3.464 h -5.743 z" />
      </g>
      <g
         transform="matrix(0.35277777,0,0,-0.35277777,45.417039,222.73678)"
         id="g6488">
        <path
           inkscape:connector-curvature="0"
           id="path6490"
           style="fill:none;stroke:#221815;stroke-width:0.41999999;stroke-linecap:butt;stroke-linejoin:miter;stroke-miterlimit:4;stroke-dasharray:none;stroke-opacity:1"
           d="M 0,0 V -7.756 H 2.139 Z M -6.534,8.45 H 4.268 L 9.094,-14.028 H 3.762 L 2.76,-10.564 H 0.014 v -3.464 h -5.743 z" />
      </g>
      <g
         transform="matrix(0.35277777,0,0,-0.35277777,51.278548,226.73863)"
         id="g6492">
        <path
           inkscape:connector-curvature="0"
           id="path6494"
           style="fill:#221815;fill-opacity:1;fill-rule:nonzero;stroke:none"
           d="M 0,0 H 1.943 L 3.056,15.638 H 0.767 Z M -6.373,19.782 H 6.348 c 0,0 4.39,-3.773 4.39,-3.81 0,-0.038 -2.4,-16.171 -2.4,-16.171 L 4.949,-2.673 H -5.865 Z" />
      </g>
      <g
         transform="matrix(0.35277777,0,0,-0.35277777,51.278548,226.73863)"
         id="g6496">
        <path
           inkscape:connector-curvature="0"
           id="path6498"
           style="fill:none;stroke:#221815;stroke-width:0.41999999;stroke-linecap:butt;stroke-linejoin:miter;stroke-miterlimit:4;stroke-dasharray:none;stroke-opacity:1"
           d="M 0,0 H 1.943 L 3.056,15.638 H 0.767 Z M -6.373,19.782 H 6.348 c 0,0 4.39,-3.773 4.39,-3.81 0,-0.038 -2.4,-16.171 -2.4,-16.171 L 4.949,-2.673 H -5.865 Z" />
      </g>
      <g
         transform="matrix(0.35277777,0,0,-0.35277777,34.631847,208.06275)"
         id="g6500">
        <path
           inkscape:connector-curvature="0"
           id="path6502"
           style="fill:#221815;fill-opacity:1;fill-rule:nonzero;stroke:none"
           d="m 0,0 h 8.588 l 5.294,-4.429 1.435,-6.532 H 7.945 L 6.533,-6.038 H 4.949 l 2.08,-7.324 h 5.344 l 4.231,-3.563 1.632,-7.448 -3.091,-3.536 H 7.77 l -4.157,3.066 -1.36,3.811 h 7.026 l 0.694,-2.401 h 1.459 L 9.997,-18.51 H 4.799 l -5.17,4.95 -3.067,8.587 z" />
      </g>
      <g
         transform="matrix(0.35277777,0,0,-0.35277777,34.631847,208.06275)"
         id="g6504">
        <path
           inkscape:connector-curvature="0"
           id="path6506"
           style="fill:none;stroke:#221815;stroke-width:0.41999999;stroke-linecap:butt;stroke-linejoin:miter;stroke-miterlimit:4;stroke-dasharray:none;stroke-opacity:1"
           d="m 0,0 h 8.588 l 5.294,-4.429 1.435,-6.532 H 7.945 L 6.533,-6.038 H 4.949 l 2.08,-7.324 h 5.344 l 4.231,-3.563 1.632,-7.448 -3.091,-3.536 H 7.77 l -4.157,3.066 -1.36,3.811 h 7.026 l 0.694,-2.401 h 1.459 L 9.997,-18.51 H 4.799 l -5.17,4.95 -3.067,8.587 z" />
      </g>
      <g
         transform="matrix(0.35277777,0,0,-0.35277777,43.771331,213.44846)"
         id="g6508">
        <path
           inkscape:connector-curvature="0"
           id="path6510"
           style="fill:#221815;fill-opacity:1;fill-rule:nonzero;stroke:none"
           d="M 0,0 H 1.683 L 0.472,9.255 H -1.311 Z M -10.071,15.243 H 3.093 L 8.239,10.664 9.032,-0.472 5.642,-5.221 H 0.52 l 1.262,-7.424 h -6.287 z" />
      </g>
      <g
         transform="matrix(0.35277777,0,0,-0.35277777,43.771331,213.44846)"
         id="g6512">
        <path
           inkscape:connector-curvature="0"
           id="path6514"
           style="fill:none;stroke:#221815;stroke-width:0.41999999;stroke-linecap:butt;stroke-linejoin:miter;stroke-miterlimit:4;stroke-dasharray:none;stroke-opacity:1"
           d="M 0,0 H 1.683 L 0.472,9.255 H -1.311 Z M -10.071,15.243 H 3.093 L 8.239,10.664 9.032,-0.472 5.642,-5.221 H 0.52 l 1.262,-7.424 h -6.287 z" />
      </g>
      <g
         transform="matrix(0.35277777,0,0,-0.35277777,55.817457,208.06723)"
         id="g6516">
        <path
           inkscape:connector-curvature="0"
           id="path6518"
           style="fill:#221815;fill-opacity:1;fill-rule:nonzero;stroke:none"
           d="M 0,0 H 8.772 L 12.83,-4.453 11.245,-10.96 H 3.823 l 0.805,5.134 H 2.475 l -2.611,-17.62 h 1.844 l 1.026,6.163 H 9.712 L 8.004,-24.248 3.773,-27.91 h -7.336 l -3.253,4.033 1.719,19.324 z" />
      </g>
      <g
         transform="matrix(0.35277777,0,0,-0.35277777,55.817457,208.06723)"
         id="g6520">
        <path
           inkscape:connector-curvature="0"
           id="path6522"
           style="fill:none;stroke:#221815;stroke-width:0.41999999;stroke-linecap:butt;stroke-linejoin:miter;stroke-miterlimit:4;stroke-dasharray:none;stroke-opacity:1"
           d="M 0,0 H 8.772 L 12.83,-4.453 11.245,-10.96 H 3.823 l 0.805,5.134 H 2.475 l -2.611,-17.62 h 1.844 l 1.026,6.163 H 9.712 L 8.004,-24.248 3.773,-27.91 h -7.336 l -3.253,4.033 1.719,19.324 z" />
      </g>
      <g
         transform="matrix(0.35277777,0,0,-0.35277777,61.613807,208.06723)"
         id="g6524">
        <path
           inkscape:connector-curvature="0"
           id="path6526"
           style="fill:#221815;fill-opacity:1;fill-rule:nonzero;stroke:none"
           d="M 0,0 H 16.17 L 14.078,-5.84 H 6.174 L 4.502,-11.345 H 9.836 L 8.078,-16.491 H 3.166 L 1.199,-23.42 H 7.683 L 6.072,-27.887 H -6.805 Z" />
      </g>
      <g
         transform="matrix(0.35277777,0,0,-0.35277777,61.613807,208.06723)"
         id="g6528">
        <path
           inkscape:connector-curvature="0"
           id="path6530"
           style="fill:none;stroke:#221815;stroke-width:0.41999999;stroke-linecap:butt;stroke-linejoin:miter;stroke-miterlimit:4;stroke-dasharray:none;stroke-opacity:1"
           d="M 0,0 H 16.17 L 14.078,-5.84 H 6.174 L 4.502,-11.345 H 9.836 L 8.078,-16.491 H 3.166 L 1.199,-23.42 H 7.683 L 6.072,-27.887 H -6.805 Z" />
      </g>
      <g
         transform="matrix(0.35277777,0,0,-0.35277777,49.999023,210.81882)"
         id="g6532">
        <path
           inkscape:connector-curvature="0"
           id="path6534"
           style="fill:#221815;fill-opacity:1;fill-rule:nonzero;stroke:none"
           d="M 0,0 -1.125,-11.241 H 0.929 Z M -5.306,7.812 H 5.458 L 7.809,-20.099 H 1.685 l -0.408,4.876 h -2.748 l -0.47,-4.876 h -6.135 z" />
      </g>
      <g
         transform="matrix(0.35277777,0,0,-0.35277777,49.999023,210.81882)"
         id="g6536">
        <path
           inkscape:connector-curvature="0"
           id="path6538"
           style="fill:none;stroke:#221815;stroke-width:0.41999999;stroke-linecap:butt;stroke-linejoin:miter;stroke-miterlimit:4;stroke-dasharray:none;stroke-opacity:1"
           d="M 0,0 -1.125,-11.241 H 0.929 Z M -5.306,7.812 H 5.458 L 7.809,-20.099 H 1.685 l -0.408,4.876 h -2.748 l -0.47,-4.876 h -6.135 z" />
      </g>
      <g
         transform="matrix(0.35277777,0,0,-0.35277777,23.97376,219.75987)"
         id="g6540">
        <path
           inkscape:connector-curvature="0"
           id="path6542"
           style="fill:#ffe200;fill-opacity:1;fill-rule:nonzero;stroke:none"
           d="M 0,0 H 7.226 L 21.577,-22.467 H 15.911 Z" />
      </g>
      <g
         transform="matrix(0.35277777,0,0,-0.35277777,23.97376,219.75987)"
         id="g6544">
        <path
           inkscape:connector-curvature="0"
           id="path6546"
           style="fill:none;stroke:#221815;stroke-width:0.105;stroke-linecap:butt;stroke-linejoin:miter;stroke-miterlimit:4;stroke-dasharray:none;stroke-opacity:1"
           d="M 0,0 H 7.226 L 21.577,-22.467 H 15.911 Z" />
      </g>
      <g
         transform="matrix(0.35277777,0,0,-0.35277777,27.592131,219.75987)"
         id="g6548">
        <path
           inkscape:connector-curvature="0"
           id="path6550"
           style="fill:#ffe200;fill-opacity:1;fill-rule:nonzero;stroke:none"
           d="m 0,0 c 0,0 5.789,0.037 5.789,0 0,-0.037 9.106,-10.244 9.106,-10.281 0,-0.036 -4.935,10.269 -4.935,10.269 h 7.372 c 0,0 9.948,-22.455 9.91,-22.455 h -4.02 l -8.327,8.808 4.664,-8.808 h -5.913 z" />
      </g>
      <g
         transform="matrix(0.35277777,0,0,-0.35277777,27.592131,219.75987)"
         id="g6552">
        <path
           inkscape:connector-curvature="0"
           id="path6554"
           style="fill:none;stroke:#221815;stroke-width:0.105;stroke-linecap:butt;stroke-linejoin:miter;stroke-miterlimit:4;stroke-dasharray:none;stroke-opacity:1"
           d="m 0,0 c 0,0 5.789,0.037 5.789,0 0,-0.037 9.106,-10.244 9.106,-10.281 0,-0.036 -4.935,10.269 -4.935,10.269 h 7.372 c 0,0 9.948,-22.455 9.91,-22.455 h -4.02 l -8.327,8.808 4.664,-8.808 h -5.913 z" />
      </g>
      <g
         transform="matrix(0.35277777,0,0,-0.35277777,34.278363,219.75987)"
         id="g6556">
        <path
           inkscape:connector-curvature="0"
           id="path6558"
           style="fill:#ffe200;fill-opacity:1;fill-rule:nonzero;stroke:none"
           d="M 0,0 H 7.51 L 15.924,-16.825 12.756,0 h 7.93 l 2.166,-22.467 H 12.793 Z" />
      </g>
      <g
         transform="matrix(0.35277777,0,0,-0.35277777,34.278363,219.75987)"
         id="g6560">
        <path
           inkscape:connector-curvature="0"
           id="path6562"
           style="fill:none;stroke:#221815;stroke-width:0.105;stroke-linecap:butt;stroke-linejoin:miter;stroke-miterlimit:4;stroke-dasharray:none;stroke-opacity:1"
           d="M 0,0 H 7.51 L 15.924,-16.825 12.756,0 h 7.93 l 2.166,-22.467 H 12.793 Z" />
      </g>
      <g
         transform="matrix(0.35277777,0,0,-0.35277777,56.271164,219.76403)"
         id="g6564">
        <path
           inkscape:connector-curvature="0"
           id="path6566"
           style="fill:#ffe200;fill-opacity:1;fill-rule:nonzero;stroke:none"
           d="M 0,0 H 16.084 L 14.709,-4.133 H 6.781 L 5.394,-9.676 h 6.497 l -1.276,-3.588 H 4.479 l -1.633,-6.495 h 6.68 L 8.623,-22.443 H -3.934 Z" />
      </g>
      <g
         transform="matrix(0.35277777,0,0,-0.35277777,56.271164,219.76403)"
         id="g6568">
        <path
           inkscape:connector-curvature="0"
           id="path6570"
           style="fill:none;stroke:#221815;stroke-width:0.105;stroke-linecap:butt;stroke-linejoin:miter;stroke-miterlimit:4;stroke-dasharray:none;stroke-opacity:1"
           d="M 0,0 H 16.084 L 14.709,-4.133 H 6.781 L 5.394,-9.676 h 6.497 l -1.276,-3.588 H 4.479 l -1.633,-6.495 h 6.68 L 8.623,-22.443 H -3.934 Z" />
      </g>
      <g
         transform="matrix(0.35277777,0,0,-0.35277777,65.685921,221.16064)"
         id="g6572">
        <path
           inkscape:connector-curvature="0"
           id="path6574"
           style="fill:#ffe200;fill-opacity:1;fill-rule:nonzero;stroke:none"
           d="m 0,0 h -2.339 l -3.132,-7.312 h 2.155 z M -8.338,3.959 H 5.293 L 7.707,0.37 4.008,-6.669 l -4.465,-2.016 2.311,-2.093 -4.057,-7.706 h -6.135 l 3.538,7.806 h -2.091 l -3.367,-7.806 h -6.012 z" />
      </g>
      <g
         transform="matrix(0.35277777,0,0,-0.35277777,65.685921,221.16064)"
         id="g6576">
        <path
           inkscape:connector-curvature="0"
           id="path6578"
           style="fill:none;stroke:#221815;stroke-width:0.105;stroke-linecap:butt;stroke-linejoin:miter;stroke-miterlimit:4;stroke-dasharray:none;stroke-opacity:1"
           d="m 0,0 h -2.339 l -3.132,-7.312 h 2.155 z M -8.338,3.959 H 5.293 L 7.707,0.37 4.008,-6.669 l -4.465,-2.016 2.311,-2.093 -4.057,-7.706 h -6.135 l 3.538,7.806 h -2.091 l -3.367,-7.806 h -6.012 z" />
      </g>
      <g
         transform="matrix(0.35277777,0,0,-0.35277777,71.377214,219.75539)"
         id="g6580">
        <path
           inkscape:connector-curvature="0"
           id="path6582"
           style="fill:#ffe200;fill-opacity:1;fill-rule:nonzero;stroke:none"
           d="m 0,0 h 9.342 c -0.039,0 1.606,-2.97 1.606,-2.97 L 6.828,-8.747 H 0.014 l 3.054,4.774 H 1.064 l -4.156,-6.704 h 4.737 l 1.808,-2.785 c 0,0 -4.492,-6.357 -4.529,-6.357 -0.037,0 -4.848,-2.649 -4.848,-2.649 h -7.289 l -1.93,2.425 1.892,3.427 h 6.644 l -1.733,-2.772 h 1.486 l 3.043,4.74 h -4.478 l -2.117,3.23 4.417,8.053 z" />
      </g>
      <g
         transform="matrix(0.35277777,0,0,-0.35277777,71.377214,219.75539)"
         id="g6584">
        <path
           inkscape:connector-curvature="0"
           id="path6586"
           style="fill:none;stroke:#221815;stroke-width:0.105;stroke-linecap:butt;stroke-linejoin:miter;stroke-miterlimit:4;stroke-dasharray:none;stroke-opacity:1"
           d="m 0,0 h 9.342 c -0.039,0 1.606,-2.97 1.606,-2.97 L 6.828,-8.747 H 0.014 l 3.054,4.774 H 1.064 l -4.156,-6.704 h 4.737 l 1.808,-2.785 c 0,0 -4.492,-6.357 -4.529,-6.357 -0.037,0 -4.848,-2.649 -4.848,-2.649 h -7.289 l -1.93,2.425 1.892,3.427 h 6.644 l -1.733,-2.772 h 1.486 l 3.043,4.74 h -4.478 l -2.117,3.23 4.417,8.053 z" />
      </g>
      <g
         transform="matrix(0.35277777,0,0,-0.35277777,45.417039,222.73678)"
         id="g6588">
        <path
           inkscape:connector-curvature="0"
           id="path6590"
           style="fill:#ffe200;fill-opacity:1;fill-rule:nonzero;stroke:none"
           d="M 0,0 V -7.756 H 2.139 Z M -6.534,8.45 H 4.268 L 9.094,-14.028 H 3.762 L 2.76,-10.564 H 0.014 v -3.464 h -5.743 z" />
      </g>
      <g
         transform="matrix(0.35277777,0,0,-0.35277777,45.417039,222.73678)"
         id="g6592">
        <path
           inkscape:connector-curvature="0"
           id="path6594"
           style="fill:none;stroke:#221815;stroke-width:0.105;stroke-linecap:butt;stroke-linejoin:miter;stroke-miterlimit:4;stroke-dasharray:none;stroke-opacity:1"
           d="M 0,0 V -7.756 H 2.139 Z M -6.534,8.45 H 4.268 L 9.094,-14.028 H 3.762 L 2.76,-10.564 H 0.014 v -3.464 h -5.743 z" />
      </g>
      <g
         transform="matrix(0.35277777,0,0,-0.35277777,51.278548,226.73863)"
         id="g6596">
        <path
           inkscape:connector-curvature="0"
           id="path6598"
           style="fill:#ffe200;fill-opacity:1;fill-rule:nonzero;stroke:none"
           d="M 0,0 H 1.943 L 3.056,15.638 H 0.767 Z M -6.373,19.782 H 6.348 c 0,0 4.39,-3.773 4.39,-3.81 0,-0.038 -2.4,-16.171 -2.4,-16.171 L 4.949,-2.673 H -5.865 Z" />
      </g>
      <g
         transform="matrix(0.35277777,0,0,-0.35277777,51.278548,226.73863)"
         id="g6600">
        <path
           inkscape:connector-curvature="0"
           id="path6602"
           style="fill:none;stroke:#221815;stroke-width:0.105;stroke-linecap:butt;stroke-linejoin:miter;stroke-miterlimit:4;stroke-dasharray:none;stroke-opacity:1"
           d="M 0,0 H 1.943 L 3.056,15.638 H 0.767 Z M -6.373,19.782 H 6.348 c 0,0 4.39,-3.773 4.39,-3.81 0,-0.038 -2.4,-16.171 -2.4,-16.171 L 4.949,-2.673 H -5.865 Z" />
      </g>
      <g
         transform="matrix(0.35277777,0,0,-0.35277777,34.631847,208.06275)"
         id="g6604">
        <path
           inkscape:connector-curvature="0"
           id="path6606"
           style="fill:#ffe200;fill-opacity:1;fill-rule:nonzero;stroke:none"
           d="m 0,0 h 8.588 l 5.294,-4.429 1.435,-6.532 H 7.945 L 6.533,-6.038 H 4.949 l 2.08,-7.324 h 5.344 l 4.231,-3.563 1.632,-7.448 -3.091,-3.536 H 7.77 l -4.157,3.066 -1.36,3.811 h 7.026 l 0.694,-2.401 h 1.459 L 9.997,-18.51 H 4.799 l -5.17,4.95 -3.067,8.587 z" />
      </g>
      <g
         transform="matrix(0.35277777,0,0,-0.35277777,34.631847,208.06275)"
         id="g6608">
        <path
           inkscape:connector-curvature="0"
           id="path6610"
           style="fill:none;stroke:#221815;stroke-width:0.105;stroke-linecap:butt;stroke-linejoin:miter;stroke-miterlimit:4;stroke-dasharray:none;stroke-opacity:1"
           d="m 0,0 h 8.588 l 5.294,-4.429 1.435,-6.532 H 7.945 L 6.533,-6.038 H 4.949 l 2.08,-7.324 h 5.344 l 4.231,-3.563 1.632,-7.448 -3.091,-3.536 H 7.77 l -4.157,3.066 -1.36,3.811 h 7.026 l 0.694,-2.401 h 1.459 L 9.997,-18.51 H 4.799 l -5.17,4.95 -3.067,8.587 z" />
      </g>
      <g
         transform="matrix(0.35277777,0,0,-0.35277777,43.771331,213.44846)"
         id="g6612">
        <path
           inkscape:connector-curvature="0"
           id="path6614"
           style="fill:#ffe200;fill-opacity:1;fill-rule:nonzero;stroke:none"
           d="M 0,0 H 1.683 L 0.472,9.255 H -1.311 Z M -10.071,15.243 H 3.093 L 8.239,10.664 9.032,-0.472 5.642,-5.221 H 0.52 l 1.262,-7.424 h -6.287 z" />
      </g>
      <g
         transform="matrix(0.35277777,0,0,-0.35277777,43.771331,213.44846)"
         id="g6616">
        <path
           inkscape:connector-curvature="0"
           id="path6618"
           style="fill:none;stroke:#221815;stroke-width:0.105;stroke-linecap:butt;stroke-linejoin:miter;stroke-miterlimit:4;stroke-dasharray:none;stroke-opacity:1"
           d="M 0,0 H 1.683 L 0.472,9.255 H -1.311 Z M -10.071,15.243 H 3.093 L 8.239,10.664 9.032,-0.472 5.642,-5.221 H 0.52 l 1.262,-7.424 h -6.287 z" />
      </g>
      <g
         transform="matrix(0.35277777,0,0,-0.35277777,55.817457,208.06723)"
         id="g6620">
        <path
           inkscape:connector-curvature="0"
           id="path6622"
           style="fill:#ffe200;fill-opacity:1;fill-rule:nonzero;stroke:none"
           d="M 0,0 H 8.772 L 12.83,-4.453 11.245,-10.96 H 3.823 l 0.805,5.134 H 2.475 l -2.611,-17.62 h 1.844 l 1.026,6.163 H 9.712 L 8.004,-24.248 3.773,-27.91 h -7.336 l -3.253,4.033 1.719,19.324 z" />
      </g>
      <g
         transform="matrix(0.35277777,0,0,-0.35277777,55.817457,208.06723)"
         id="g6624">
        <path
           inkscape:connector-curvature="0"
           id="path6626"
           style="fill:none;stroke:#221815;stroke-width:0.105;stroke-linecap:butt;stroke-linejoin:miter;stroke-miterlimit:4;stroke-dasharray:none;stroke-opacity:1"
           d="M 0,0 H 8.772 L 12.83,-4.453 11.245,-10.96 H 3.823 l 0.805,5.134 H 2.475 l -2.611,-17.62 h 1.844 l 1.026,6.163 H 9.712 L 8.004,-24.248 3.773,-27.91 h -7.336 l -3.253,4.033 1.719,19.324 z" />
      </g>
      <g
         transform="matrix(0.35277777,0,0,-0.35277777,61.613807,208.06723)"
         id="g6628">
        <path
           inkscape:connector-curvature="0"
           id="path6630"
           style="fill:#ffe200;fill-opacity:1;fill-rule:nonzero;stroke:none"
           d="M 0,0 H 16.17 L 14.078,-5.84 H 6.174 L 4.502,-11.345 H 9.836 L 8.078,-16.491 H 3.166 L 1.199,-23.42 H 7.683 L 6.072,-27.887 H -6.805 Z" />
      </g>
      <g
         transform="matrix(0.35277777,0,0,-0.35277777,61.613807,208.06723)"
         id="g6632">
        <path
           inkscape:connector-curvature="0"
           id="path6634"
           style="fill:none;stroke:#221815;stroke-width:0.105;stroke-linecap:butt;stroke-linejoin:miter;stroke-miterlimit:4;stroke-dasharray:none;stroke-opacity:1"
           d="M 0,0 H 16.17 L 14.078,-5.84 H 6.174 L 4.502,-11.345 H 9.836 L 8.078,-16.491 H 3.166 L 1.199,-23.42 H 7.683 L 6.072,-27.887 H -6.805 Z" />
      </g>
      <g
         transform="matrix(0.35277777,0,0,-0.35277777,49.999023,210.81882)"
         id="g6636">
        <path
           inkscape:connector-curvature="0"
           id="path6638"
           style="fill:#ffe200;fill-opacity:1;fill-rule:nonzero;stroke:none"
           d="M 0,0 -1.125,-11.241 H 0.929 Z M -5.306,7.812 H 5.458 L 7.809,-20.099 H 1.685 l -0.408,4.876 h -2.748 l -0.47,-4.876 h -6.135 z" />
      </g>
      <g
         transform="matrix(0.35277777,0,0,-0.35277777,49.999023,210.81882)"
         id="g6640">
        <path
           inkscape:connector-curvature="0"
           id="path6642"
           style="fill:none;stroke:#221815;stroke-width:0.105;stroke-linecap:butt;stroke-linejoin:miter;stroke-miterlimit:4;stroke-dasharray:none;stroke-opacity:1"
           d="M 0,0 -1.125,-11.241 H 0.929 Z M -5.306,7.812 H 5.458 L 7.809,-20.099 H 1.685 l -0.408,4.876 h -2.748 l -0.47,-4.876 h -6.135 z" />
      </g>
    </g>
  </g>
</svg>
