<svg width="60" height="70" viewBox="0 0 60 70" fill="none" xmlns="http://www.w3.org/2000/svg">
<path d="M1.45458 20.2378L28.752 34.6847C29.5488 35.1072 30.45 35.1072 31.2469 34.6847L58.5442 20.2378C60.4837 19.2111 60.4837 15.7918 58.5442 14.7651L31.248 0.316836C30.8565 0.108057 30.4311 0 30.0006 0C29.5701 0 29.1447 0.108057 28.7531 0.316836L1.45458 14.7637C-0.484859 15.7904 -0.484859 19.2111 1.45458 20.2378ZM58.5454 32.3072L51.7381 28.7074L32.7961 38.7247C31.9101 39.1936 30.9691 39.4315 30 39.4315C29.0309 39.4315 28.091 39.1936 27.2039 38.7247L8.2631 28.7074L1.45458 32.3072C-0.484859 33.3326 -0.484859 36.7505 1.45458 37.7759L28.752 52.2118C29.5488 52.6329 30.45 52.6329 31.2469 52.2118L58.5454 37.7759C60.4849 36.7505 60.4849 33.3326 58.5454 32.3072V32.3072ZM58.5454 49.7796L51.7638 46.1935L32.7961 56.2244C31.9101 56.6934 30.9691 56.9313 30 56.9313C29.0309 56.9313 28.091 56.6934 27.2039 56.2244L8.23732 46.1935L1.45458 49.7796C-0.484859 50.805 -0.484859 54.2229 1.45458 55.2483L28.752 69.6842C29.5488 70.1053 30.45 70.1053 31.2469 69.6842L58.5454 55.2483C60.4849 54.2229 60.4849 50.805 58.5454 49.7796V49.7796Z" fill="#353333"/>
</svg>
